<?xml version="1.0" encoding="utf-8"?>
<!-- Generator: Adobe Illustrator 14.0.0, SVG Export Plug-In  -->
<!DOCTYPE svg PUBLIC "-//W3C//DTD SVG 1.1//EN" "http://www.w3.org/Graphics/SVG/1.1/DTD/svg11.dtd" [
	<!ENTITY ns_flows "http://ns.adobe.com/Flows/1.0/">
]>
<svg version="1.1"
	 xmlns="http://www.w3.org/2000/svg" xmlns:xlink="http://www.w3.org/1999/xlink" xmlns:a="http://ns.adobe.com/AdobeSVGViewerExtensions/3.0/"
	 x="0px" y="0px" width="2400px" height="1004px" viewBox="-94.129 -354.003 2400 1004"
	 enable-background="new -94.129 -354.003 2400 1004" xml:space="preserve">
<defs>
</defs>
<polyline fill="none" stroke="#363636" stroke-width="2" points="1057.164,40.728 1082.29,52.542 1072.92,59.292 1059.719,73.638 
	1052.905,89.672 1035.445,93.047 1027.779,95.579 994.988,128.067 957.086,159.291 901.725,201.484 897.893,207.391 
	894.485,221.736 869.786,238.615 857.009,251.694 838.697,259.711 832.31,269.836 794.409,293.042 763.321,309.498 736.066,323.844 
	690.499,348.739 727.123,348.739 739.473,340.298 765.024,338.191 801.648,320.469 815.701,316.671 842.957,306.967 872.34,302.747 
	885.117,289.246 917.907,276.587 951.978,269.836 999.521,269.122 992.646,263.247 980.936,263.085 986.897,248.319 
	994.563,236.927 998.395,226.8 1010.746,217.095 1018.838,208.657 1027.779,194.733 1050.35,171.948 1065.255,164.354 
	1085.271,146.21 1121.043,114.988 1142.762,93.047 1135.947,79.967 1127.431,63.512 1114.656,52.542 1102.304,48.744 
	1082.29,52.542 "/>
<polyline fill="none" stroke="#363636" stroke-width="2" points="1010.012,14.362 1088.892,31.304 1123.812,40.586 1157.027,55.987 
	1212.815,92.906 1258.624,124.839 1311.979,162.03 1320.558,168.01 1371.52,198.601 1418.647,209.642 1465.21,226.519 
	1524.261,252.96 1503.82,259.711 1512.338,275.462 1521.423,291.213 1496.438,309.217 1520.854,324.408 1527.669,332.846 
	1511.657,342.587 1495.304,352.537 1473.727,368.288 1439.658,376.586 1305.652,376.586 1113.094,376.586 1060.004,376.586 
	919.186,376.586 671.122,376.586 683.021,369.622 691.138,348.597 "/>
<polyline fill="none" stroke="#363636" stroke-width="2" points="1142.762,93.047 1162.778,108.237 1184.921,123.426 
	1201.956,141.147 1224.102,163.088 1240.285,189.248 1256.467,198.741 1246.247,206.969 1252.207,214.142 1243.266,231.863 
	1262.003,246.209 1264.132,255.07 1279.889,266.039 1305.867,271.947 1346.321,282.495 1329.288,287.981 1328.011,293.042 
	1314.81,293.042 1331.843,301.904 1346.321,304.857 1363.783,304.857 1377.411,314.562 1391.89,325.533 1401.685,330.594 
	1416.589,344.942 1387.205,352.114 1349.304,354.646 1335.251,354.646 1318.643,360.551 1308.849,367.726 1305.652,376.586 "/>
<polyline fill="none" stroke="#363636" stroke-width="2" points="1258.624,124.839 1279.676,122.864 1291.103,119.489 
	1304.162,119.489 1372.301,86.015 1387.063,80.389 1406.521,75.747 1423.049,74.092 1444.625,71.841 1457.399,68.465 
	1461.659,70.997 1469.041,68.465 1477.274,68.465 1487.495,73.529 1507.155,78.403 1538.669,79.247 1554.285,88.546 
	1564.224,91.079 1593.749,108.237 1604.252,116.675 1628.101,134.959 1634.914,140.867 1648.826,148.743 1665.576,161.119 
	1673.81,166.463 1686.303,174.621 1698.226,181.935 1760.969,220.19 1741.662,225.253 1706.742,238.192 1660.182,252.537 
	1619.582,261.259 1586.65,264.07 1546.335,278.417 1521.423,291.213 "/>
<polyline fill="none" stroke="#363636" stroke-width="2" points="2305.87,0.855 2289.177,10.981 2279.383,12.88 2268.735,27.226 
	2254.044,35.242 2241.48,40.517 2235.731,45.58 2232.324,45.58 2229.131,48.744 2226.576,48.744 2217.634,54.651 2200.172,63.934 
	2197.19,63.934 2194.636,66.255 2179.091,73.006 2175.686,76.592 2171.853,76.592 2156.522,82.077 2153.541,80.811 2149.92,82.077 
	2143.959,83.132 2132.035,84.398 2128.841,86.507 2116.012,85.822 2113.083,87.035 2106.11,93.258 2100.148,94.366 2094.451,98.901 
	2089.183,99.324 2077.258,105.02 2071.136,106.268 2057.51,106.268 2032.811,107.393 2021.454,108.377 2014.498,107.393 
	1996.044,107.393 1981.139,108.659 1970.208,110.909 1960.697,117.52 1939.545,128.208 1923.08,129.896 1909.594,129.896 
	1900.083,131.303 1886.882,134.116 1878.365,138.054 1872.97,138.054 1867.576,140.726 1861.896,141.71 1852.103,146.21 
	1848.98,150.712 1844.579,151.415 1828.965,162.948 1811.079,170.683 1793.617,176.872 1779.423,178.137 1750.89,182.779 
	1723.066,182.779 1709.724,180.387 1698.226,181.935 "/>
<polyline fill="none" stroke="#363636" stroke-width="2" points="2071.136,106.268 2058.786,111.613 2039.624,117.73 
	2029.828,123.426 2019.394,128.067 2005.129,136.084 1991.287,142.414 1979.364,145.156 1969.782,148.954 1959.562,155.071 
	1937.203,170.05 1918.04,181.021 1903.986,189.88 1883.972,199.375 1858.633,206.125 1834.357,209.501 1805.825,211.47 
	1760.969,220.19 "/>
<polyline fill="none" stroke="#363636" stroke-width="2" points="2305.871,110.769 2283.641,114.144 2249.147,117.097 
	2221.465,122.582 2205.282,128.067 2175.898,132.708 2145.236,137.35 2120.11,139.882 2108.612,145.789 2071.136,159.712 
	2006.405,182.779 1971.911,194.733 1922.512,213.298 1975.743,208.235 2015.349,199.796 2030.254,198.953 2049.844,191.779 
	2081.356,190.092 2132.461,180.598 2211.245,157.603 2248.295,146.633 2269.588,136.084 2296.843,128.912 2305.871,128.912 "/>
<polyline fill="none" stroke="#363636" stroke-width="2" points="1922.512,213.298 1892.276,215.83 1868.854,222.159 
	1839.896,224.269 1810.511,232.285 1775.591,244.522 1754.723,257.18 1735.133,257.18 1711.285,260.131 1690.843,260.131 
	1669.977,265.618 1649.537,268.149 1636.333,272.369 1629.094,277.853 1612.484,287.135 1603.116,294.731 1576.713,306.967 
	1560.956,315.829 1527.669,332.846 "/>
<path fill="none" stroke="#363636" stroke-width="2" d="M2305.87,182.779l-36.14,7.313l-25.837,5.063L2232.538,205l-6.813,2.25
	l-25.268,16.596l-36.342,18.848l-35.062,6.469l-36.197,14.346l-21.721,5.906l-19.162,3.659h-20.867l-22.998,4.779l-30.661-2.109
	l-32.791-2.67l-37.476-6.191l-10.646-2.951l-11.498-4.22l-34.496,8.017l-31.512,10.125l-20.018,2.954l-26.827-3.797l-28.533-2.11
	l-25.126,1.266l-17.46,2.531l-15.758,2.11h-16.182l-17.886,2.531c0,0-11.498-2.531-11.925-3.798
	c-0.426-1.264-2.981-7.172-2.981-7.172"/>
<polyline fill="none" stroke="#363636" stroke-width="2" points="2305.871,140.022 2283.357,147.336 2273.705,155.775 
	2226.008,168.151 2194.777,174.902 2178.88,182.779 2163.548,182.779 2156.734,197.405 2142.538,203.032 2123.801,205.844 
	2105.063,220.19 2098.249,233.059 2071.136,230.597 2047.714,233.059 2015.349,235.661 1967.015,233.059 1934.436,237.771 
	1902.708,240.513 1855.438,247.475 1830.739,247.475 1804.761,250.217 1779.849,256.546 1754.723,257.18 "/>
<polyline fill="none" stroke="#363636" stroke-width="2" points="2305.871,238.192 2288.751,238.192 2270.438,244.098 
	2236.795,244.098 2213.8,251.273 2184.841,257.18 2156.309,263.931 2147.792,263.931 2123.091,263.931 2104.354,271.102 
	2095.41,271.102 2077.951,273.074 2059.213,277.01 2027.698,295.153 2002.047,320.469 1998.74,330.173 1971.102,339.878 
	1965.949,347.896 1963.82,373.632 2084.765,373.632 2089.448,367.726 2097.966,365.616 2108.186,355.49 2126.072,344.096 
	2137.146,341.565 2149.92,332.846 2166.955,324.689 2175.898,316.671 2206.134,309.078 2240.63,305.913 2256.811,296.418 
	2266.181,295.996 2277.68,290.512 2289.603,291.355 2305.871,292.199 "/>
<polyline fill="none" stroke="#363636" stroke-width="2" points="2084.765,373.632 2255.959,373.632 2305.871,373.632 "/>
<polyline fill="none" stroke="#363636" stroke-width="2" points="2108.186,355.49 2122.239,355.49 2145.236,344.096 
	2172.491,332.846 2191.654,330.173 2203.152,332.846 2223.169,330.173 2248.722,323 2272.993,317.515 2287.899,327.22 
	2305.871,314.984 "/>
<polyline fill="none" stroke="#363636" stroke-width="2" points="2287.899,327.22 2269.588,345.362 2264.052,360.975 
	2257.663,366.039 2255.959,373.632 "/>
<polyline fill="none" stroke="#363636" stroke-width="2" points="2027.698,295.153 2014.214,300.358 2000.019,303.733 
	1966.802,322.017 1936.991,327.641 1912.858,327.641 1888.159,336.643 1862.038,345.362 1839.61,353.519 1823.144,356.052 
	1811.788,361.117 1803.271,359.989 1796.456,366.74 1789.075,371.242 1782.83,373.632 1822.576,373.632 1873.112,373.632 
	1911.723,373.632 1956.58,373.632 1963.82,373.632 "/>
<polyline fill="none" stroke="#363636" stroke-width="2" points="1922.512,307.811 1900.792,315.829 1883.332,327.22 
	1857.355,332.846 1828.396,340.298 1810.937,340.298 1798.586,346.628 1787.514,352.537 1773.887,356.754 1744.929,364.349 
	1731.726,368.148 1716.821,370.678 1708.304,374.477 1782.83,373.632 "/>
<polyline fill="none" stroke="#363636" stroke-width="2" points="1320.558,168.01 1371.876,187.138 1406.369,192.202 
	1464.285,202.75 1479.912,206.957 1503.465,213.298 1568.622,233.059 1601.839,247.475 1619.582,261.259 "/>
<polyline fill="none" stroke="#363636" stroke-width="2" points="978.805,50.432 964.966,51.909 953.255,53.597 944.95,57.605 
	939.414,56.128 892.995,56.339 883.2,57.605 870.211,60.77 841.968,69.529 811.945,81.765 801.937,83.664 799.382,86.618 
	787.884,92.946 774.605,101.486 771.545,105.316 765.604,107.394 762.41,114.988 744.015,119.84 733.227,119.84 726.696,123.497 
	719.6,127.153 717.896,130.248 713.637,132.217 710.798,136.999 707.958,136.999 705.404,143.75 658.133,168.784 622.787,184.817 
	606.178,190.303 585.312,205.914 564.444,218.15 529.95,238.403 514.193,247.264 508.656,254.859 500.437,259.83 489.797,267.094 
	476.771,272.664 464.103,277.502 446.359,279.754 436.104,280.497 422.511,282.285 397.953,284.253 375.104,289.83 351.372,296.209 
	319.453,312.875 309.271,315.622 291.346,323.422 268.349,329.119 259.193,332.284 252.806,332.284 244.076,335.87 218.95,338.4 
	205.748,338.4 182.751,341.565 159.542,345.995 148.683,347.896 134.842,351.481 113.549,356.123 79.48,362.874 54.781,365.828 
	34.766,368.148 14.537,372.579 0.271,376.586 102.386,376.586 156.896,376.586 180.532,376.586 322.13,376.586 433.989,376.586 
	520.296,376.586 617.393,376.586 671.122,376.586 "/>
<polyline fill="none" stroke="#363636" stroke-width="2" points="1121.043,114.988 1112.526,131.021 1102.304,140.585 
	1104.577,149.08 1086.974,158.587 1086.974,168.01 1073.347,177.715 1067.669,198.741 1055.178,213.509 1032.465,227.222 
	1015.997,261.259 1009.185,267.728 1001.234,286.856 991.014,307.671 978.805,324.547 959.785,343.113 934.8,363.927 
	919.186,376.586 "/>
<polyline fill="none" stroke="#363636" stroke-width="2" points="1246.247,206.969 1219.274,204.156 1198.833,204.156 
	1186.91,206.969 1175.34,204.156 1162.99,204.156 1152.77,212.665 1135.947,217.095 1108.48,220.26 1103.156,224.69 
	1076.966,224.69 1072.282,220.471 1065.894,224.69 1032.465,227.222 "/>
<polyline fill="none" stroke="#363636" stroke-width="2" points="991.014,307.671 1004.073,298.388 1009.752,288.543 
	1027.921,286.01 1031.046,281.23 1060.286,273.074 1071.644,262.383 1113.094,239.458 1117.353,246.63 1109.403,256.195 
	1107.245,269.134 1117.353,280.384 1119.056,295.294 1102.021,316.671 1077.605,346.207 1067.669,354.646 1070.223,361.117 
	1064.545,369.554 1060.004,376.586 "/>
<polyline fill="none" stroke="#363636" stroke-width="2" points="1117.353,280.384 1136.942,274.198 1157.384,265.757 
	1169.022,268.291 1179.813,264.07 1190.884,267.447 1215.3,265.476 1226.938,257.039 1249.937,257.039 1264.132,255.07 "/>
<polyline fill="none" stroke="#363636" stroke-width="2" points="1226.938,257.039 1226.938,270.821 1228.359,280.384 
	1221.545,289.95 1221.545,298.388 1211.042,313.014 1189.465,327.079 1167.036,348.739 1159.086,359.427 1142.762,363.927 
	1131.265,366.178 1119.056,369.554 1113.094,376.586 "/>
<polyline fill="none" stroke="#363636" stroke-width="2" points="1335.251,354.646 1348.169,359.989 1362.08,358.865 
	1373.579,361.959 1388.199,359.85 1401.259,355.208 1413.468,356.333 1419.431,353.519 1438.45,361.959 1444.696,366.178 
	1439.658,376.586 1708.304,374.477 "/>
<polyline fill="none" stroke="#363636" stroke-width="2" points="1496.438,309.217 1462.298,291.213 1437.884,280.384 
	1397.567,257.039 1365.204,239.458 1294.794,209.782 1256.467,198.741 "/>
<polyline fill="none" stroke="#363636" stroke-width="2" points="1796.456,366.74 1808.665,369.273 1821.156,368.006 
	1829.392,365.053 1840.747,365.053 1853.238,358.865 1866.015,358.865 1878.506,356.333 1892.418,356.333 1905.263,343.675 
	1928.474,343.675 1956.58,331.017 1966.802,322.017 1949.767,314.984 1922.512,307.811 1900.792,298.53 1882.906,287.135 
	1870.558,291.213 1844.579,299.373 1805.825,308.655 1768.775,317.093 1732.151,322.157 1708.304,328.908 1695.103,334.392 
	1682.326,332.846 1672.105,328.908 1643.433,337.487 1622.706,340.017 1609.364,340.017 1591.193,341.423 1577.85,345.521 
	1555.988,342.587 1542.93,347.049 1524.19,348.458 1511.657,342.587 "/>
<polyline fill="none" stroke="#363636" stroke-width="2" points="1928.474,343.675 1944.373,345.925 1952.037,359.146 
	1954.734,367.868 1956.58,373.632 "/>
<polyline fill="none" stroke="#363636" stroke-width="2" points="1371.876,187.138 1391.038,175.324 1414.46,159.291 
	1440.013,140.022 1461.304,124.271 1479.19,114.565 1496.438,99.798 1513.687,91.817 1534.127,85.875 1538.669,79.247 "/>
<polyline fill="none" stroke="#363636" stroke-width="2" points="1461.659,70.997 1441.716,85.875 1422.127,96.422 
	1392.315,112.878 1352.712,140.022 1311.979,162.03 "/>
<polyline fill="none" stroke="#363636" stroke-width="2" points="1534.127,85.875 1538.669,94.735 1549.885,100.642 
	1552.226,106.127 1570.325,117.271 1582.676,121.95 1588.85,129.544 1585.018,135.873 1573.519,143.679 1554.993,150.43 
	1538.669,159.923 1520.074,173.847 1513.899,180.598 1497.503,193.889 1479.912,206.957 "/>
<polyline fill="none" stroke="#363636" stroke-width="2" points="897.893,207.391 886.536,215.69 861.553,219.908 851.332,215.69 
	827.484,219.908 843.383,204.156 853.035,179.402 864.108,170.683 866.947,163.229 847.356,178.559 828.619,195.155 
	813.856,204.859 797.531,217.658 776.806,230.316 761.334,239.317 752.249,247.475 749.693,256.757 738.621,254.508 
	730.955,260.696 712.501,264.633 721.303,256.757 736.066,248.6 744.015,245.786 758.21,232.004 758.778,223.565 744.583,225.534 
	725.277,235.097 712.501,244.662 686.666,250.288 662.534,247.757 640.957,259.006 628.75,253.662 616.825,264.633 596.951,271.384 
	585.027,283.761 555.217,285.448 525.124,290.231 512.915,290.231 503.262,296.701 488.499,296.701 470.896,304.013 
	451.875,302.608 432.286,302.045 412.696,316.39 402.191,324.266 395.662,332.705 370.039,345.995 353.43,353.8 344.275,345.575 
	328.518,340.722 312.974,344.942 292.746,351.902 276.989,353.8 267.833,358.444 247.392,360.763 229.292,358.444 202.037,364.349 
	188.197,369.413 180.532,376.586 "/>
<polyline fill="none" stroke="#363636" stroke-width="2" points="1057.164,40.728 1036.724,27.648 1010.012,14.362 1001.771,22.122 
	993.68,36.467 978.805,50.432 965.604,59.292 955.384,71.107 942.182,84.187 932.387,98.111 912.913,116.064 901.725,126.38 
	884.265,145.789 866.947,163.229 "/>
<polyline fill="none" stroke="#363636" stroke-width="2" points="719.6,127.153 729.82,131.584 742.879,129.369 761.334,131.584 
	773.257,131.584 797.106,124.833 823.509,114.988 844.802,113.582 872.909,116.957 912.913,116.064 "/>
<polyline fill="none" stroke="#363636" stroke-width="2" points="794.409,293.042 783.336,288.402 760.766,299.793 760.766,289.667 
	729.252,309.078 704.126,330.594 686.666,336.924 690.499,307.811 671.122,324.689 674.316,305.701 667.076,303.591 651.746,322.58 
	638.97,331.017 631.73,314.562 609.159,325.533 613.418,312.663 606.178,309.92 595.958,322.157 566.574,339.878 559.334,332.284 
	539.212,329.33 506.953,339.878 494.603,339.878 480.55,348.739 465.645,351.693 455.424,351.693 446.907,342.832 436.26,348.739 
	423.484,351.693 406.876,359.288 399.068,350.145 391.12,353.519 381.466,351.551 349.101,363.647 353.43,353.8 "/>
<line fill="none" stroke="#363636" stroke-width="2" x1="349.101" y1="363.647" x2="322.13" y2="376.586"/>
<polyline fill="none" stroke="#363636" stroke-width="2" points="965.604,59.292 978.805,57.324 986.188,62.95 1001.803,76.733 
	1012.023,89.953 1027.779,95.579 "/>
</svg>
